<svg width="56" height="56" viewBox="0 0 56 56" fill="none" xmlns="http://www.w3.org/2000/svg">
<circle cx="28" cy="28" r="28" fill="url(#paint0_radial_326_10)"/>
<path d="M26.2466 23.7661C22.7269 23.7661 19.8635 20.9027 19.8635 17.383C19.8635 13.8634 22.7269 11 26.2466 11C29.7662 11 32.6296 13.8634 32.6296 17.383C32.6296 20.9027 29.7662 23.7661 26.2466 23.7661ZM26.2466 13.5694C24.1437 13.5694 22.4329 15.2802 22.4329 17.383C22.4329 19.4859 24.1437 21.1967 26.2466 21.1967C28.3494 21.1967 30.0602 19.4859 30.0602 17.383C30.0602 15.2802 28.3494 13.5694 26.2466 13.5694Z" fill="white"/>
<path d="M17.2847 44.0347C16.5752 44.0347 16 43.4595 16 42.75V33.6676C16 29.5787 19.3266 26.2521 23.4156 26.2521H29.0781C31.6181 26.2521 33.9562 27.5386 35.3323 29.6932C35.7302 30.3164 36.0311 30.9922 36.2271 31.7013C36.4165 32.3848 36.0154 33.0928 35.3315 33.2819C34.6488 33.4724 33.94 33.0704 33.751 32.3863C33.6229 31.9245 33.4265 31.4837 33.1663 31.0766C32.2648 29.6646 30.7364 28.8218 29.0781 28.8218H23.4156C20.7434 28.8218 18.5694 30.9959 18.5694 33.668V42.75C18.5694 43.4595 17.9942 44.0347 17.2847 44.0347Z" fill="white"/>
<path d="M35.209 44.0347C34.4995 44.0347 33.9243 43.4596 33.9243 42.7501V41.9293C33.9243 41.2198 34.4995 40.6447 35.209 40.6447C35.9185 40.6447 36.4937 41.2198 36.4937 41.9293V42.7501C36.4937 43.4596 35.9181 44.0347 35.209 44.0347Z" fill="white"/>
<path d="M25.3386 36.2315L28.464 33.1061C28.9658 32.6043 29.7788 32.6043 30.2805 33.1061C30.7823 33.6075 30.7823 34.4212 30.2805 34.9226L29.3482 35.8549H41.7153C42.4248 35.8549 43 36.4301 43 37.1396C43 37.8491 42.4248 38.4243 41.7153 38.4243H29.3479L30.2805 39.357C30.7823 39.8587 30.7823 40.6721 30.2805 41.1735C30.0295 41.4246 29.701 41.5497 29.3721 41.5497C29.0432 41.5497 28.7143 41.4242 28.4636 41.1735L25.3382 38.0477C24.8364 37.5463 24.8364 36.7329 25.3386 36.2315Z" fill="white"/>
<defs>
<radialGradient id="paint0_radial_326_10" cx="0" cy="0" r="1" gradientUnits="userSpaceOnUse" gradientTransform="translate(58.184 -5.81647) rotate(129.411) scale(93.4169)">
<stop stop-color="#E84D70"/>
<stop offset="0.530886" stop-color="#A337F6"/>
<stop offset="1" stop-color="#28A7ED"/>
</radialGradient>
</defs>
</svg>
